<?xml version="1.0" encoding="utf-8"?>
<!-- Generator: Adobe Illustrator 23.0.1, SVG Export Plug-In . SVG Version: 6.00 Build 0)  -->
<svg version="1.1" id="Layer_1" xmlns="http://www.w3.org/2000/svg" xmlns:xlink="http://www.w3.org/1999/xlink" x="0px" y="0px"
	 width="23.63px" height="28px" viewBox="0 0 23.63 28" style="enable-background:new 0 0 23.63 28;" xml:space="preserve">
<g>
	<g>
		<path style="fill:#5C5C5C;" d="M22.47,13.12h-8.58c-0.45,0-0.82-0.39-0.82-0.88s0.37-0.88,0.82-0.88h8.58
			c0.45,0,0.82,0.39,0.82,0.88S22.92,13.12,22.47,13.12z"/>
		<path style="fill:#5C5C5C;" d="M19.29,16.63c-0.19,0-0.37-0.07-0.51-0.21c-0.28-0.28-0.28-0.74,0-1.02l3.1-3.1l-3.1-3.1
			c-0.28-0.28-0.28-0.74,0-1.02c0.28-0.28,0.74-0.28,1.02,0l3.61,3.61c0.28,0.28,0.28,0.74,0,1.02l-3.61,3.61
			C19.66,16.55,19.47,16.63,19.29,16.63z"/>
	</g>
	<path style="fill:#5C5C5C;" d="M9.33,28c-0.25,0-0.49-0.04-0.72-0.11l-7.02-2.34C0.63,25.22,0,24.33,0,23.33v-21
		C0,1.05,1.05,0,2.33,0c0.25,0,0.49,0.04,0.72,0.11l7.02,2.34c0.96,0.33,1.59,1.22,1.59,2.22v21C11.67,26.95,10.62,28,9.33,28z
		 M2.33,1.75c-0.32,0-0.58,0.26-0.58,0.58v21c0,0.25,0.17,0.48,0.4,0.56l6.99,2.33c0.05,0.02,0.12,0.03,0.19,0.03
		c0.32,0,0.58-0.26,0.58-0.58v-21c0-0.25-0.17-0.48-0.4-0.56L2.52,1.78C2.47,1.76,2.41,1.75,2.33,1.75z"/>
	<path style="fill:#5C5C5C;" d="M17.79,6.71c-0.48,0-0.88-0.39-0.88-0.88V3.21c0-0.8-0.65-1.46-1.46-1.46H2.33
		c-0.48,0-0.88-0.39-0.88-0.88S1.85,0,2.33,0h13.13c1.77,0,3.21,1.44,3.21,3.21v2.63C18.67,6.32,18.27,6.71,17.79,6.71z"/>
	<path style="fill:#5C5C5C;" d="M15.46,24.5h-4.67c-0.48,0-0.88-0.39-0.88-0.88s0.39-0.88,0.88-0.88h4.67c0.8,0,1.46-0.65,1.46-1.46
		v-2.63c0-0.48,0.39-0.88,0.88-0.88s0.88,0.39,0.88,0.88v2.63C18.67,23.06,17.23,24.5,15.46,24.5z"/>
</g>
<path style="fill:#5C5C5C;" d="M6.31,11.23l1.86,0.65v2.71l-1.86-0.65V11.23z"/>
</svg>
