<?xml version="1.0" encoding="utf-8"?>
<!-- Generator: Adobe Illustrator 23.0.1, SVG Export Plug-In . SVG Version: 6.00 Build 0)  -->
<svg version="1.1" id="Layer_1" xmlns="http://www.w3.org/2000/svg" xmlns:xlink="http://www.w3.org/1999/xlink" x="0px" y="0px"
	 width="19.6px" height="28px" viewBox="0 0 19.6 28" style="enable-background:new 0 0 19.6 28;" xml:space="preserve">
<style type="text/css">
	.st0{fill:#FFFFFF;}
</style>
<g>
	<g>
		<g>
			<path class="st0" d="M18.5,13.1h-7.6c-0.4,0-0.8-0.4-0.8-0.9s0.4-0.9,0.8-0.9h7.6c0.5,0,0.8,0.4,0.8,0.9S18.9,13.1,18.5,13.1z"/>
			<path class="st0" d="M15.3,16.6c-0.2,0-0.4-0.1-0.5-0.2c-0.3-0.3-0.3-0.7,0-1l3.1-3.1l-3.1-3.1c-0.3-0.3-0.3-0.7,0-1
				c0.3-0.3,0.7-0.3,1,0l3.6,3.6c0.3,0.3,0.3,0.7,0,1l-3.6,3.6C15.7,16.5,15.5,16.6,15.3,16.6z"/>
		</g>
		<path class="st0" d="M6.3,28c-0.3,0-0.5,0-0.7-0.1l-4-2.3c-1-0.3-1.6-1.2-1.6-2.2v-21C0,1,1,0,2.3,0C2.6,0,2.8,0,3,0.1l4,2.3
			c1,0.3,1.6,1.2,1.6,2.2v21C8.7,27,7.6,28,6.3,28z M2.3,1.8C2,1.8,1.8,2,1.8,2.3v21c0,0.3,0.2,0.5,0.4,0.6l4,2.3c0.1,0,0.1,0,0.2,0
			c0.3,0,0.6-0.3,0.6-0.6v-21c0-0.3-0.2-0.5-0.4-0.6l-4-2.3C2.5,1.8,2.4,1.8,2.3,1.8z"/>
		<path class="st0" d="M14.8,6.7c-0.5,0-0.9-0.4-0.9-0.9V3.2c0-0.8-0.6-1.5-1.5-1.5H2.3c-0.5,0-0.9-0.4-0.9-0.9S1.9,0,2.3,0h10.1
			c1.8,0,3.2,1.4,3.2,3.2v2.6C15.7,6.3,15.3,6.7,14.8,6.7z"/>
		<path class="st0" d="M12.5,24.5H7.8c-0.5,0-0.9-0.4-0.9-0.9s0.4-0.9,0.9-0.9h4.7c0.8,0,1.5-0.6,1.5-1.5v-2.6
			c0-0.5,0.4-0.9,0.9-0.9s0.9,0.4,0.9,0.9v2.6C15.7,23.1,14.2,24.5,12.5,24.5z"/>
	</g>
	<path class="st0" d="M3.3,10.8l1.9,0.6v2.7l-1.9-0.7V10.8z"/>
</g>
</svg>
