<?xml version="1.0" encoding="utf-8"?>
<!-- Generator: Adobe Illustrator 23.0.1, SVG Export Plug-In . SVG Version: 6.00 Build 0)  -->
<svg version="1.1" id="Capa_1" xmlns="http://www.w3.org/2000/svg" xmlns:xlink="http://www.w3.org/1999/xlink" x="0px" y="0px"
	 width="17.5px" height="26px" viewBox="0 0 17.5 26" style="enable-background:new 0 0 17.5 26;" xml:space="preserve">
<style type="text/css">
	.st0{fill:#FFFFFF;}
</style>
<g>
	<g>
		<path class="st0" d="M0,26h0.2h15.4c0.3,0,0.6-0.3,0.6-0.6c0-0.3-0.3-0.6-0.6-0.6H4.6v-8.5l1.5-1.5l0,0l2.8-2.9l0,0l2.8-2.9l0,0
			L14.4,6l0,0l1.8-1.9c0.4-0.5,0.7-1.1,0.7-1.7c0-0.8-0.4-1.5-1-2c-0.6-0.5-1.4-0.6-2.1-0.3c0,0,0,0,0,0c-0.3,0.1-0.6,0.3-0.8,0.5
			l-2.1,2.2l0,0L8,5.9l0,0L5.3,8.8l0,0L1.2,13c0,0,0,0,0,0v0.1c0,0,0,0,0-0.1l0,0c0-1-0.8-1.3-1.2-0.3l0,0.4 M3.5,24.8L3.5,24.8H1.2
			v-9.7c0-0.7,0.5-1.2,1.2-1.2s1.2,0.5,1.2,1.2V24.8z M4.6,14.6c-0.2-0.8-0.8-1.5-1.6-1.8l2.1-2.2v3.4h0L4.6,14.6z M7.9,11.2
			l-1.6,1.7V9.4l1.6-1.7V11.2z M10.7,8.2L9,9.9V6.5l1.6-1.7V8.2z M13.4,5.3L11.8,7V3.6l1.6-1.7V5.3z M15.4,3.3l-0.8,0.9V1.2
			c0.3,0,0.6,0.1,0.8,0.4c0.2,0.2,0.3,0.5,0.3,0.9C15.7,2.7,15.6,3,15.4,3.3z M10.9,12.9c0-0.4,0.4-0.8,0.8-0.8s0.8,0.3,0.8,0.8v9.7
			c0,0.4-0.4,0.8-0.8,0.8s-0.8-0.3-0.8-0.8V12.9z M11.7,21.5l4.3-4.1c0.3-0.3,0.8-0.3,1.2,0c0.3,0.3,0.3,0.8,0,1.1l-4.9,4.6
			c-0.3,0.3-0.8,0.3-1.2,0l-4.9-4.6c-0.3-0.3-0.3-0.8,0-1.1c0.3-0.3,0.8-0.3,1.2,0L11.7,21.5L11.7,21.5z"/>
	</g>
	<path class="st0" d="M3,15.5c0,0,0-0.1-0.1-0.1c0,0,0-0.1-0.1-0.1c-0.2-0.2-0.4-0.2-0.7-0.1c-0.1,0-0.1,0.1-0.2,0.1
		c0,0,0,0.1-0.1,0.1c0,0,0,0.1-0.1,0.1c0,0,0,0.1,0,0.1c0,0,0,0.1,0,0.1c0,0.1,0,0.2,0,0.2C1.9,16,2,16.1,2,16.2
		c0.1,0.1,0.1,0.1,0.2,0.1c0.1,0,0.2,0,0.2,0c0,0,0.1,0,0.1,0c0,0,0.1,0,0.1,0c0,0,0.1,0,0.1-0.1c0,0,0.1,0,0.1-0.1
		C2.9,16.1,3,16,3,16c0-0.1,0-0.2,0-0.2c0,0,0-0.1,0-0.1C3,15.6,3,15.5,3,15.5z"/>
</g>
</svg>
