<svg xmlns="http://www.w3.org/2000/svg" viewBox="0 0 512 241" width="182.7px" height="76px">
	<style>
		tspan { white-space:pre }
		.shp0 { fill: #B2AFB2 } 
	</style>
	<g id="Folder 1">
		<g id="Layer">
			<g id="Layer">
				<path id="Layer" fill-rule="evenodd" class="shp0" d="M512 8L512 232C512 236.42 508.42 240 504 240L8 240C3.58 240 0 236.42 0 232L0 8C0 3.58 3.58 0 8 0L37.68 0L235.6 -124.62C218.78 -132.51 208.03 -149.41 208 -168C208 -172.42 211.58 -176 216 -176C220.42 -176 224 -172.42 224 -168C224 -150.33 238.33 -136 256 -136C273.67 -136 288 -150.33 288 -168C288 -185.67 273.67 -200 256 -200C251.58 -200 248 -203.58 248 -208L248 -240L224 -240C219.58 -240 216 -243.58 216 -248C216 -252.42 219.58 -256 224 -256L288 -256C292.42 -256 296 -252.42 296 -248C296 -243.58 292.42 -240 288 -240L264 -240L264 -215.34C279.44 -212.69 292.63 -202.68 299.32 -188.51C310.63 -164.54 300.37 -135.93 276.4 -124.62L474.32 0L504 0C508.42 0 512 3.58 512 8ZM67.73 0L444.27 0L256 -118.54L67.73 0ZM496 16L16 16L16 224L496 224L496 16Z" />
			</g>
		</g>
		<g id="Layer">
			<g id="Layer">
				<path id="Layer" class="shp0" d="M256 24C251.58 24 248 27.58 248 32L248 208C248 212.42 251.58 216 256 216C260.42 216 264 212.42 264 208L264 32C264 27.58 260.42 24 256 24Z" />
			</g>
		</g>
		<g id="Layer">
			<g id="Layer">
				<path id="Layer" class="shp0" d="M216 24C211.58 24 208 27.58 208 32L208 208C208 212.42 211.58 216 216 216C220.42 216 224 212.42 224 208L224 32C224 27.58 220.42 24 216 24Z" />
			</g>
		</g>
		<g id="Layer">
			<g id="Layer">
				<path id="Layer" class="shp0" d="M176 24C171.58 24 168 27.58 168 32L168 208C168 212.42 171.58 216 176 216C180.42 216 184 212.42 184 208L184 32C184 27.58 180.42 24 176 24Z" />
			</g>
		</g>
		<g id="Layer">
			<g id="Layer">
				<path id="Layer" class="shp0" d="M136 24C131.58 24 128 27.58 128 32L128 208C128 212.42 131.58 216 136 216C140.42 216 144 212.42 144 208L144 32C144 27.58 140.42 24 136 24Z" />
			</g>
		</g>
		<g id="Layer">
			<g id="Layer">
				<path id="Layer" class="shp0" d="M96 24C91.58 24 88 27.58 88 32L88 208C88 212.42 91.58 216 96 216C100.42 216 104 212.42 104 208L104 32C104 27.58 100.42 24 96 24Z" />
			</g>
		</g>
		<g id="Layer">
			<g id="Layer">
				<path id="Layer" class="shp0" d="M56 24C51.58 24 48 27.58 48 32L48 208C48 212.42 51.58 216 56 216C60.42 216 64 212.42 64 208L64 32C64 27.58 60.42 24 56 24Z" />
			</g>
		</g>
		<g id="Layer">
			<g id="Layer">
				<path id="Layer" class="shp0" d="M296 24C291.58 24 288 27.58 288 32L288 208C288 212.42 291.58 216 296 216C300.42 216 304 212.42 304 208L304 32C304 27.58 300.42 24 296 24Z" />
			</g>
		</g>
		<g id="Layer">
			<g id="Layer">
				<path id="Layer" class="shp0" d="M336 24C331.58 24 328 27.58 328 32L328 208C328 212.42 331.58 216 336 216C340.42 216 344 212.42 344 208L344 32C344 27.58 340.42 24 336 24Z" />
			</g>
		</g>
		<g id="Layer">
			<g id="Layer">
				<path id="Layer" class="shp0" d="M376 24C371.58 24 368 27.58 368 32L368 208C368 212.42 371.58 216 376 216C380.42 216 384 212.42 384 208L384 32C384 27.58 380.42 24 376 24Z" />
			</g>
		</g>
		<g id="Layer">
			<g id="Layer">
				<path id="Layer" class="shp0" d="M416 24C411.58 24 408 27.58 408 32L408 208C408 212.42 411.58 216 416 216C420.42 216 424 212.42 424 208L424 32C424 27.58 420.42 24 416 24Z" />
			</g>
		</g>
		<g id="Layer">
			<g id="Layer">
				<path id="Layer" class="shp0" d="M456 24C451.58 24 448 27.58 448 32L448 208C448 212.42 451.58 216 456 216C460.42 216 464 212.42 464 208L464 32C464 27.58 460.42 24 456 24Z" />
			</g>
		</g>
		<!-- <g id="Layer">
		</g>
		<g id="Layer">
		</g>
		<g id="Layer">
		</g>
		<g id="Layer">
		</g>
		<g id="Layer">
		</g>
		<g id="Layer">
		</g>
		<g id="Layer">
		</g>
		<g id="Layer">
		</g>
		<g id="Layer">
		</g>
		<g id="Layer">
		</g>
		<g id="Layer">
		</g>
		<g id="Layer">
		</g>
		<g id="Layer">
		</g>
		<g id="Layer">
		</g>
		<g id="Layer">
		</g> -->
	</g>
</svg>