<?xml version="1.0" encoding="utf-8"?>
<!-- Generator: Adobe Illustrator 23.0.1, SVG Export Plug-In . SVG Version: 6.00 Build 0)  -->
<svg version="1.1" id="Isolation_Mode" xmlns="http://www.w3.org/2000/svg" xmlns:xlink="http://www.w3.org/1999/xlink" x="0px"
	 y="0px" width="240px" height="40.71px" viewBox="0 0 240 40.71" style="enable-background:new 0 0 240 40.71;"
	 xml:space="preserve">
<g>
	<g id="Filledoutline_1_">
		<path style="fill:#D6DAE4;" d="M91.65,33.1h1.9v3.8h-1.9V33.1z"/>
		<path style="fill:#D6DAE4;" d="M96.95,33.1h1.9v3.8h-1.9V33.1z"/>
		<path style="fill:#D6DAE4;" d="M121.52,20.75c0-0.52-0.43-0.95-0.95-0.95h-2.85v-8.55c0-0.52-0.43-0.95-0.95-0.95h-15.21
			c-0.52,0-0.95,0.43-0.95,0.95v8.55H90.16c-0.52,0-0.95,0.43-0.95,0.95v8.55h-1.9c-0.52,0-0.95,0.43-0.95,0.95v9.5
			c0,0.52,0.43,0.95,0.95,0.95h30.42c0.52,0,0.95-0.43,0.95-0.95V31.2h1.9c0.52,0,0.95-0.43,0.95-0.95V20.75z M102.51,12.19h13.31
			v7.6h-13.31V12.19z M91.11,21.7h13.31v7.6H91.11V21.7z M88.26,31.2h13.31v7.6H88.26V31.2z M116.77,38.8h-13.31v-7.6h13.31V38.8z
			 M119.62,29.3h-13.31v-7.6h13.31V29.3z"/>
		<path style="fill:#D6DAE4;" d="M109.71,23.6h1.9v3.8h-1.9V23.6z"/>
		<path style="fill:#D6DAE4;" d="M115,23.6h1.9v3.8H115V23.6z"/>
		<path style="fill:#D6DAE4;" d="M94.5,23.6h1.9v3.8h-1.9V23.6z"/>
		<path style="fill:#D6DAE4;" d="M99.8,23.6h1.9v3.8h-1.9V23.6z"/>
		<path style="fill:#D6DAE4;" d="M105.91,14.09h1.9v3.8h-1.9V14.09z"/>
		<path style="fill:#D6DAE4;" d="M111.2,14.09h1.9v3.8h-1.9V14.09z"/>
		<path style="fill:#D6DAE4;" d="M106.86,33.1h1.9v3.8h-1.9V33.1z"/>
		<path style="fill:#D6DAE4;" d="M112.15,33.1h1.9v3.8h-1.9V33.1z"/>
	</g>
	<g id="Filledoutline_3_">
		<path style="fill:#D6DAE4;" d="M122.22,33.1h1.9v3.8h-1.9V33.1z"/>
		<path style="fill:#D6DAE4;" d="M127.51,33.1h1.9v3.8h-1.9V33.1z"/>
		<path style="fill:#D6DAE4;" d="M152.09,20.75c0-0.52-0.43-0.95-0.95-0.95h-2.85v-8.55c0-0.52-0.43-0.95-0.95-0.95h-15.21
			c-0.52,0-0.95,0.43-0.95,0.95v8.55h-10.46c-0.52,0-0.95,0.43-0.95,0.95v8.55h-1.9c-0.52,0-0.95,0.43-0.95,0.95v9.5
			c0,0.52,0.43,0.95,0.95,0.95h30.42c0.52,0,0.95-0.43,0.95-0.95V31.2h1.9c0.52,0,0.95-0.43,0.95-0.95V20.75z M133.08,12.19h13.31
			v7.6h-13.31V12.19z M121.68,21.7h13.31v7.6h-13.31V21.7z M118.83,31.2h13.31v7.6h-13.31V31.2z M147.34,38.8h-13.31v-7.6h13.31
			V38.8z M150.19,29.3h-13.31v-7.6h13.31V29.3z"/>
		<path style="fill:#D6DAE4;" d="M140.28,23.6h1.9v3.8h-1.9V23.6z"/>
		<path style="fill:#D6DAE4;" d="M145.57,23.6h1.9v3.8h-1.9V23.6z"/>
		<path style="fill:#D6DAE4;" d="M125.07,23.6h1.9v3.8h-1.9V23.6z"/>
		<path style="fill:#D6DAE4;" d="M130.37,23.6h1.9v3.8h-1.9V23.6z"/>
		<path style="fill:#D6DAE4;" d="M136.48,14.09h1.9v3.8h-1.9V14.09z"/>
		<path style="fill:#D6DAE4;" d="M141.77,14.09h1.9v3.8h-1.9V14.09z"/>
		<path style="fill:#D6DAE4;" d="M137.43,33.1h1.9v3.8h-1.9V33.1z"/>
		<path style="fill:#D6DAE4;" d="M142.72,33.1h1.9v3.8h-1.9V33.1z"/>
	</g>
	<g id="Filledoutline_5_">
		<path style="fill:#D6DAE4;" d="M114.72,0.05L114.72,0.05h-1.9c-0.52,0-0.95,0.43-0.95,0.95v9.5c0,0.52,0.43,0.95,0.95,0.95h2.85
			v8.55c0,0.52,0.43,0.95,0.95,0.95h15.21c0.52,0,0.95-0.43,0.95-0.95v-8.55h10.46c0.52,0,0.95-0.43,0.95-0.95V1.95h0.29
			c0.52,0,0.95-0.43,0.95-0.95V0 M130.88,19.06h-13.31v-7.6h13.31V19.06z M142.29,9.55h-13.31v-7.6h13.31V9.55z M113.77,1.95h13.31
			v7.6h-13.31V1.95z"/>
		<path style="fill:#D6DAE4;" d="M123.68,7.65h-1.9v-3.8h1.9V7.65z"/>
		<path style="fill:#D6DAE4;" d="M118.39,7.65h-1.9v-3.8h1.9V7.65z"/>
		<path style="fill:#D6DAE4;" d="M138.89,7.65h-1.9v-3.8h1.9V7.65z"/>
		<path style="fill:#D6DAE4;" d="M133.6,7.65h-1.9v-3.8h1.9V7.65z"/>
		<path style="fill:#D6DAE4;" d="M127.49,17.16h-1.9v-3.8h1.9V17.16z"/>
		<path style="fill:#D6DAE4;" d="M122.19,17.16h-1.9v-3.8h1.9V17.16z"/>
	</g>
	<g id="Filledoutline_2_">
		<path style="fill:#D6DAE4;" d="M29.87,33.04h-1.9v3.8h1.9V33.04z"/>
		<path style="fill:#D6DAE4;" d="M24.58,33.04h-1.9v3.8h1.9V33.04z"/>
		<path style="fill:#D6DAE4;" d="M0,30.19c0,0.52,0.43,0.95,0.95,0.95h1.9v8.55c0,0.52,0.43,0.95,0.95,0.95h30.42
			c0.52,0,0.95-0.43,0.95-0.95v-9.5c0-0.52-0.43-0.95-0.95-0.95h-1.9v-8.55c0-0.52-0.43-0.95-0.95-0.95H20.91v-8.55
			c0-0.52-0.43-0.95-0.95-0.95H4.75c-0.52,0-0.95,0.43-0.95,0.95v8.55H0.95C0.43,19.74,0,20.16,0,20.69L0,30.19z M19.01,19.74H5.7
			v-7.6h13.31V19.74z M30.42,29.24H17.11v-7.6h13.31V29.24z M33.27,38.75H19.96v-7.6h13.31V38.75z M4.75,31.14h13.31v7.6H4.75V31.14
			z M1.9,21.64h13.31v7.6H1.9V21.64z"/>
		<path style="fill:#D6DAE4;" d="M11.81,23.54h-1.9v3.8h1.9V23.54z"/>
		<path style="fill:#D6DAE4;" d="M6.52,23.54h-1.9v3.8h1.9V23.54z"/>
		<path style="fill:#D6DAE4;" d="M27.02,23.54h-1.9v3.8h1.9V23.54z"/>
		<path style="fill:#D6DAE4;" d="M21.73,23.54h-1.9v3.8h1.9V23.54z"/>
		<path style="fill:#D6DAE4;" d="M15.62,14.03h-1.9v3.8h1.9V14.03z"/>
		<path style="fill:#D6DAE4;" d="M10.32,14.03h-1.9v3.8h1.9V14.03z"/>
		<path style="fill:#D6DAE4;" d="M14.66,33.04h-1.9v3.8h1.9V33.04z"/>
		<path style="fill:#D6DAE4;" d="M9.37,33.04h-1.9v3.8h1.9V33.04z"/>
	</g>
	<g id="Filledoutline_4_">
		<path style="fill:#D6DAE4;" d="M234.7,33.04h-1.9v3.8h1.9V33.04z"/>
		<path style="fill:#D6DAE4;" d="M229.41,33.04h-1.9v3.8h1.9V33.04z"/>
		<path style="fill:#D6DAE4;" d="M204.83,30.19c0,0.52,0.43,0.95,0.95,0.95h1.9v8.55c0,0.52,0.43,0.95,0.95,0.95h30.42
			c0.52,0,0.95-0.43,0.95-0.95v-9.5c0-0.52-0.43-0.95-0.95-0.95h-1.9v-8.55c0-0.52-0.43-0.95-0.95-0.95h-10.46v-8.55
			c0-0.52-0.43-0.95-0.95-0.95h-15.21c-0.52,0-0.95,0.43-0.95,0.95v8.55h-2.85c-0.52,0-0.95,0.43-0.95,0.95V30.19z M223.84,19.74
			h-13.31v-7.6h13.31V19.74z M235.25,29.24h-13.31v-7.6h13.31V29.24z M238.1,38.75h-13.31v-7.6h13.31V38.75z M209.58,31.14h13.31
			v7.6h-13.31V31.14z M206.73,21.64h13.31v7.6h-13.31V21.64z"/>
		<path style="fill:#D6DAE4;" d="M216.65,23.54h-1.9v3.8h1.9V23.54z"/>
		<path style="fill:#D6DAE4;" d="M211.35,23.54h-1.9v3.8h1.9V23.54z"/>
		<path style="fill:#D6DAE4;" d="M231.85,23.54h-1.9v3.8h1.9V23.54z"/>
		<path style="fill:#D6DAE4;" d="M226.56,23.54h-1.9v3.8h1.9V23.54z"/>
		<path style="fill:#D6DAE4;" d="M220.45,14.03h-1.9v3.8h1.9V14.03z"/>
		<path style="fill:#D6DAE4;" d="M215.15,14.03h-1.9v3.8h1.9V14.03z"/>
		<path style="fill:#D6DAE4;" d="M219.5,33.04h-1.9v3.8h1.9V33.04z"/>
		<path style="fill:#D6DAE4;" d="M214.2,33.04h-1.9v3.8h1.9V33.04z"/>
	</g>
	<path style="fill:#D6DAE4;" d="M166.07,33.15c-1.2,0-2.18,0.98-2.18,2.18s0.98,2.18,2.18,2.18c1.2,0,2.18-0.98,2.18-2.18
		S167.27,33.15,166.07,33.15z M166.07,36.06c-0.4,0-0.73-0.33-0.73-0.73c0-0.4,0.33-0.73,0.73-0.73s0.73,0.33,0.73,0.73
		C166.79,35.73,166.47,36.06,166.07,36.06z M184.25,33.15c-1.2,0-2.18,0.98-2.18,2.18s0.98,2.18,2.18,2.18
		c1.2,0,2.18-0.98,2.18-2.18S185.45,33.15,184.25,33.15z M184.25,36.06c-0.4,0-0.73-0.33-0.73-0.73c0-0.4,0.33-0.73,0.73-0.73
		c0.4,0,0.73,0.33,0.73,0.73C184.98,35.73,184.65,36.06,184.25,36.06z M192.98,33.15c-1.2,0-2.18,0.98-2.18,2.18
		s0.98,2.18,2.18,2.18c1.2,0,2.18-0.98,2.18-2.18S194.18,33.15,192.98,33.15z M192.98,36.06c-0.4,0-0.73-0.33-0.73-0.73
		c0-0.4,0.33-0.73,0.73-0.73c0.4,0,0.73,0.33,0.73,0.73C193.7,35.73,193.38,36.06,192.98,36.06z M159.52,36.06h1.51
		c0.35,2.46,2.47,4.36,5.03,4.36s4.68-1.9,5.03-4.36h8.12c0.35,2.46,2.47,4.36,5.03,4.36c1.85,0,3.47-1,4.36-2.48
		c0.89,1.48,2.51,2.48,4.36,2.48c2.56,0,4.68-1.9,5.03-4.36h0.79c1.2,0,2.18-0.98,2.18-2.18v-1.45c0-1.2-0.98-2.18-2.18-2.18h-0.73
		v-1.45h2.91V11.33h-29.09v17.46h2.91v1.45h-4.36V19.33c0-1.2-0.98-2.18-2.18-2.18h-5.82c-3.61,0-6.55,2.94-6.55,6.55v8.73
		C155.88,34.43,157.52,36.06,159.52,36.06z M157.34,32.42V31.7h5.17c-0.78,0.76-1.31,1.78-1.48,2.91h-1.51
		C158.32,34.61,157.34,33.63,157.34,32.42z M166.07,38.97c-2.01,0-3.64-1.63-3.64-3.64c0-2.01,1.63-3.64,3.64-3.64
		s3.64,1.63,3.64,3.64C169.7,37.34,168.07,38.97,166.07,38.97z M169.62,31.7h11.07c-0.78,0.76-1.31,1.78-1.48,2.91h-8.12
		C170.94,33.47,170.4,32.46,169.62,31.7z M184.25,38.97c-2.01,0-3.64-1.63-3.64-3.64c0-2.01,1.63-3.64,3.64-3.64
		c2.01,0,3.64,1.63,3.64,3.64C187.89,37.34,186.25,38.97,184.25,38.97z M187.81,31.7h1.62c-0.31,0.31-0.58,0.65-0.81,1.03
		C188.39,32.35,188.12,32,187.81,31.7z M192.98,38.97c-2.01,0-3.64-1.63-3.64-3.64c0-2.01,1.63-3.64,3.64-3.64s3.64,1.63,3.64,3.64
		C196.61,37.34,194.98,38.97,192.98,38.97z M199.52,32.42v1.45c0,0.4-0.33,0.73-0.73,0.73h-0.79c-0.16-1.13-0.7-2.14-1.48-2.91h2.26
		C199.2,31.7,199.52,32.02,199.52,32.42z M173.34,12.79h26.18v14.55h-26.18V12.79z M176.25,28.79h20.36v1.45h-20.36V28.79z
		 M168.25,18.61c0.4,0,0.73,0.33,0.73,0.73v10.91h-11.64v-2.91h6.55c2.01,0,3.64-1.63,3.64-3.64v-3.64h-8.65
		c0.92-0.9,2.17-1.45,3.56-1.45H168.25z M157.84,21.51h8.23v2.18c0,1.2-0.98,2.18-2.18,2.18h-6.55V23.7
		C157.34,22.91,157.52,22.18,157.84,21.51z M174.79,24.42h1.45v1.45h-1.45V24.42z M174.79,17.15h1.45v5.82h-1.45V17.15z
		 M174.79,14.24h1.45v1.45h-1.45V14.24z M179.16,24.42h1.45v1.45h-1.45V24.42z M179.16,17.15h1.45v5.82h-1.45V17.15z M179.16,14.24
		h1.45v1.45h-1.45V14.24z M183.52,24.42h1.45v1.45h-1.45V24.42z M183.52,17.15h1.45v5.82h-1.45V17.15z M183.52,14.24h1.45v1.45
		h-1.45V14.24z M187.89,24.42h1.45v1.45h-1.45V24.42z M187.89,17.15h1.45v5.82h-1.45V17.15z M187.89,14.24h1.45v1.45h-1.45V14.24z
		 M192.25,24.42h1.45v1.45h-1.45V24.42z M192.25,17.15h1.45v5.82h-1.45V17.15z M192.25,14.24h1.45v1.45h-1.45V14.24z M196.61,24.42
		h1.45v1.45h-1.45V24.42z M196.61,17.15h1.45v5.82h-1.45V17.15z M196.61,14.24h1.45v1.45h-1.45V14.24z"/>
	<path style="fill:#D6DAE4;" d="M69.92,35.33c0,1.2,0.98,2.18,2.18,2.18s2.18-0.98,2.18-2.18s-0.98-2.18-2.18-2.18
		S69.92,34.13,69.92,35.33z M71.37,35.33c0-0.4,0.33-0.73,0.73-0.73s0.73,0.33,0.73,0.73c0,0.4-0.33,0.73-0.73,0.73
		S71.37,35.73,71.37,35.33z M51.74,35.33c0,1.2,0.98,2.18,2.18,2.18s2.18-0.98,2.18-2.18s-0.98-2.18-2.18-2.18
		S51.74,34.13,51.74,35.33z M53.19,35.33c0-0.4,0.33-0.73,0.73-0.73c0.4,0,0.73,0.33,0.73,0.73c0,0.4-0.33,0.73-0.73,0.73
		C53.52,36.06,53.19,35.73,53.19,35.33z M43.01,35.33c0,1.2,0.98,2.18,2.18,2.18s2.18-0.98,2.18-2.18s-0.98-2.18-2.18-2.18
		S43.01,34.13,43.01,35.33z M44.46,35.33c0-0.4,0.33-0.73,0.73-0.73s0.73,0.33,0.73,0.73c0,0.4-0.33,0.73-0.73,0.73
		S44.46,35.73,44.46,35.33z M82.28,32.42V23.7c0-3.61-2.94-6.55-6.55-6.55h-5.82c-1.2,0-2.18,0.98-2.18,2.18v10.91h-4.36v-1.45h2.91
		V11.33H37.19v17.46h2.91v1.45h-0.73c-1.2,0-2.18,0.98-2.18,2.18v1.45c0,1.2,0.98,2.18,2.18,2.18h0.79
		c0.35,2.46,2.47,4.36,5.03,4.36c1.85,0,3.47-1,4.36-2.48c0.89,1.48,2.51,2.48,4.36,2.48c2.56,0,4.68-1.9,5.03-4.36h8.12
		c0.35,2.46,2.47,4.36,5.03,4.36s4.68-1.9,5.03-4.36h1.51C80.65,36.06,82.28,34.43,82.28,32.42z M78.65,34.61h-1.51
		c-0.16-1.13-0.7-2.14-1.48-2.91h5.17v0.73C80.83,33.63,79.85,34.61,78.65,34.61z M68.46,35.33c0-2.01,1.63-3.64,3.64-3.64
		s3.64,1.63,3.64,3.64c0,2.01-1.63,3.64-3.64,3.64S68.46,37.34,68.46,35.33z M67.07,34.61h-8.12c-0.16-1.13-0.7-2.14-1.48-2.91
		h11.07C67.76,32.46,67.23,33.47,67.07,34.61z M50.28,35.33c0-2.01,1.63-3.64,3.64-3.64c2.01,0,3.64,1.63,3.64,3.64
		c0,2.01-1.63,3.64-3.64,3.64C51.91,38.97,50.28,37.34,50.28,35.33z M49.55,32.72c-0.23-0.38-0.5-0.72-0.81-1.03h1.62
		C50.05,32,49.78,32.35,49.55,32.72z M41.55,35.33c0-2.01,1.63-3.64,3.64-3.64s3.64,1.63,3.64,3.64c0,2.01-1.63,3.64-3.64,3.64
		S41.55,37.34,41.55,35.33z M39.37,31.7h2.26c-0.78,0.76-1.31,1.78-1.48,2.91h-0.79c-0.4,0-0.73-0.33-0.73-0.73v-1.45
		C38.64,32.02,38.97,31.7,39.37,31.7z M64.83,27.33H38.64V12.79h26.18V27.33z M61.92,30.24H41.55v-1.45h20.36V30.24z M75.74,18.61
		c1.38,0,2.64,0.56,3.56,1.45h-8.65v3.64c0,2.01,1.63,3.64,3.64,3.64h6.55v2.91H69.19V19.33c0-0.4,0.33-0.73,0.73-0.73H75.74z
		 M80.83,23.7v2.18h-6.55c-1.2,0-2.18-0.98-2.18-2.18v-2.18h8.23C80.65,22.18,80.83,22.91,80.83,23.7z M63.37,25.88h-1.45v-1.45
		h1.45V25.88z M63.37,22.97h-1.45v-5.82h1.45V22.97z M63.37,15.7h-1.45v-1.45h1.45V15.7z M59.01,25.88h-1.45v-1.45h1.45V25.88z
		 M59.01,22.97h-1.45v-5.82h1.45V22.97z M59.01,15.7h-1.45v-1.45h1.45V15.7z M54.64,25.88h-1.45v-1.45h1.45V25.88z M54.64,22.97
		h-1.45v-5.82h1.45V22.97z M54.64,15.7h-1.45v-1.45h1.45V15.7z M50.28,25.88h-1.45v-1.45h1.45V25.88z M50.28,22.97h-1.45v-5.82h1.45
		V22.97z M50.28,15.7h-1.45v-1.45h1.45V15.7z M45.92,25.88h-1.45v-1.45h1.45V25.88z M45.92,22.97h-1.45v-5.82h1.45V22.97z
		 M45.92,15.7h-1.45v-1.45h1.45V15.7z M41.55,25.88H40.1v-1.45h1.45V25.88z M41.55,22.97H40.1v-5.82h1.45V22.97z M41.55,15.7H40.1
		v-1.45h1.45V15.7z"/>
</g>
</svg>
