<?xml version="1.0" encoding="utf-8"?>
<!-- Generator: Adobe Illustrator 23.0.1, SVG Export Plug-In . SVG Version: 6.00 Build 0)  -->
<svg version="1.1" id="Layer_1" xmlns="http://www.w3.org/2000/svg" xmlns:xlink="http://www.w3.org/1999/xlink" x="0px" y="0px"
	 width="190.08px" height="52.22px" viewBox="0 0 190.08 52.22" style="enable-background:new 0 0 190.08 52.22;"
	 xml:space="preserve">
<g>
	<path style="fill-rule:evenodd;clip-rule:evenodd;fill:#FFFFFF;" d="M58.08,26.22h132v26h-132V26.22z"/>
	<g>
		<g>
			<path style="fill-rule:evenodd;clip-rule:evenodd;fill:#CBD5E2;" d="M58.08,20.22h42v-3h-42V20.22z M58.08,13.22h52v-5h-52V13.22
				z M149.08,0.22v5h31v-5H149.08z M89.08,0.22h-31v5h31V0.22z"/>
		</g>
	</g>
	<g>
		<g>
			
				<rect x="179.49" y="9.72" transform="matrix(-1 -1.224647e-16 1.224647e-16 -1 361.6356 30.0306)" style="fill:#575757;" width="2.65" height="10.59"/>
			
				<rect x="175.74" y="9.72" transform="matrix(-1 -1.224647e-16 1.224647e-16 -1 353.2298 30.0306)" style="fill:#575757;" width="1.76" height="10.59"/>
			
				<rect x="187.05" y="9.72" transform="matrix(-1 -1.224647e-16 1.224647e-16 -1 375.8499 30.0306)" style="fill:#575757;" width="1.76" height="10.59"/>
			
				<rect x="173.42" y="9.72" transform="matrix(-1 -1.224647e-16 1.224647e-16 -1 347.72 30.0306)" style="fill:#575757;" width="0.88" height="10.59"/>
			
				<rect x="170.52" y="9.72" transform="matrix(-1 -1.224647e-16 1.224647e-16 -1 341.9114 30.0306)" style="fill:#575757;" width="0.88" height="10.59"/>
			
				<rect x="150.19" y="9.72" transform="matrix(-1 -1.224647e-16 1.224647e-16 -1 301.2511 30.0306)" style="fill:#575757;" width="0.88" height="10.59"/>
			
				<rect x="187.64" y="9.72" transform="matrix(-1 -1.224647e-16 1.224647e-16 -1 377.0451 30.0306)" style="fill:#575757;" width="1.76" height="10.59"/>
			
				<rect x="183.58" y="9.72" transform="matrix(-1 -1.224647e-16 1.224647e-16 -1 368.9131 30.0306)" style="fill:#575757;" width="1.76" height="10.59"/>
			
				<rect x="156.26" y="9.72" transform="matrix(-1 -1.224647e-16 1.224647e-16 -1 315.1667 30.0306)" style="fill:#575757;" width="2.65" height="10.59"/>
			
				<rect x="152.5" y="9.72" transform="matrix(-1 -1.224647e-16 1.224647e-16 -1 306.7609 30.0306)" style="fill:#575757;" width="1.76" height="10.59"/>
			
				<rect x="167.59" y="9.72" transform="matrix(-1 -1.224647e-16 1.224647e-16 -1 335.9474 30.0306)" style="fill:#575757;" width="0.77" height="10.59"/>
			
				<rect x="163.81" y="9.72" transform="matrix(-1 -1.224647e-16 1.224647e-16 -1 329.381 30.0306)" style="fill:#575757;" width="1.76" height="10.59"/>
			
				<rect x="167.31" y="9.72" transform="matrix(-1 -1.224647e-16 1.224647e-16 -1 336.3848 30.0306)" style="fill:#575757;" width="1.76" height="10.59"/>
			
				<rect x="164.41" y="9.72" transform="matrix(-1 -1.224647e-16 1.224647e-16 -1 330.5762 30.0306)" style="fill:#575757;" width="1.76" height="10.59"/>
			
				<rect x="160.34" y="9.72" transform="matrix(-1 -1.224647e-16 1.224647e-16 -1 322.4442 30.0306)" style="fill:#575757;" width="1.76" height="10.59"/>
			
				<rect x="146.69" y="9.72" transform="matrix(-1 -1.224647e-16 1.224647e-16 -1 295.1437 30.0306)" style="fill:#575757;" width="1.76" height="10.59"/>
			
				<rect x="144.38" y="9.72" transform="matrix(-1 -1.224647e-16 1.224647e-16 -1 289.6339 30.0306)" style="fill:#575757;" width="0.88" height="10.59"/>
			
				<rect x="141.47" y="9.72" transform="matrix(-1 -1.224647e-16 1.224647e-16 -1 283.8253 30.0306)" style="fill:#575757;" width="0.88" height="10.59"/>
			
				<rect x="121.14" y="9.72" transform="matrix(-1 -1.224647e-16 1.224647e-16 -1 243.165 30.0306)" style="fill:#575757;" width="0.88" height="10.59"/>
			
				<rect x="127.22" y="9.72" transform="matrix(-1 -1.224647e-16 1.224647e-16 -1 257.0806 30.0306)" style="fill:#575757;" width="2.65" height="10.59"/>
			
				<rect x="123.46" y="9.72" transform="matrix(-1 -1.224647e-16 1.224647e-16 -1 248.6748 30.0306)" style="fill:#575757;" width="1.76" height="10.59"/>
			
				<rect x="138.54" y="9.72" transform="matrix(-1 -1.224647e-16 1.224647e-16 -1 277.8613 30.0306)" style="fill:#575757;" width="0.77" height="10.59"/>
			
				<rect x="134.77" y="9.72" transform="matrix(-1 -1.224647e-16 1.224647e-16 -1 271.2949 30.0306)" style="fill:#575757;" width="1.76" height="10.59"/>
			
				<rect x="138.27" y="9.72" transform="matrix(-1 -1.224647e-16 1.224647e-16 -1 278.2987 30.0306)" style="fill:#575757;" width="1.76" height="10.59"/>
			
				<rect x="135.37" y="9.72" transform="matrix(-1 -1.224647e-16 1.224647e-16 -1 272.4901 30.0306)" style="fill:#575757;" width="1.76" height="10.59"/>
			
				<rect x="131.3" y="9.72" transform="matrix(-1 -1.224647e-16 1.224647e-16 -1 264.3581 30.0306)" style="fill:#575757;" width="1.76" height="10.59"/>
		</g>
	</g>
	<g>
		<rect x="0" y="0" style="fill:#FFFFFF;" width="48.58" height="51.82"/>
		<g>
			<g>
				<path style="fill:#C2DCED;" d="M48.58,51.82l-2.85-11.65c-0.52-2.12-2.22-3.75-4.36-4.18c-7.89-1.59-16.76-0.99-16.76-0.99
					s-9.44-0.67-17.59,1.21c-2.04,0.47-3.63,2.07-4.14,4.1L0,51.83L48.58,51.82z"/>
				<g>
					<path style="fill:#93BECE;" d="M33.38,35.92c-4.46-4.1-2.24-12.03-2.24-12.03l-6.43,0l-6.43,0c0,0,2.23,7.93-2.24,12.03
						c-0.87,0.8,3.47,1.81,8.67,1.89C29.91,37.73,34.24,36.72,33.38,35.92z"/>
					<path style="fill:#474B50;" d="M32.79,28.88l-4.7,3.97c-0.35,0.26-1.63,0.39-2.06,0.39l-2.65,0c-0.43,0-1.7-0.14-2.06-0.39
						l-4.7-3.97c-0.57-0.41-0.91-1.1-0.91-1.82l0-11.68c0-4.71,3.65-8.53,8.15-8.53l1.7,0c4.5,0,8.15,3.82,8.15,8.53l0,11.68
						C33.71,27.78,33.37,28.46,32.79,28.88z"/>
					<path style="fill:#C2DCED;" d="M25.52,4.01l-1.62,0c-4.3,0-7.79,3.28-7.79,7.32l0,10.01c0,0.62,0.33,1.21,0.87,1.56l2.45,0.91
						c0.44-2.11,2.31-3.03,4.55-3.03l1.47,0c2.23,0,4.11,0.92,4.55,3.03l2.45-0.91c0.55-0.36,0.87-0.94,0.87-1.56l0-10.01
						C33.31,7.28,29.82,4.01,25.52,4.01z"/>
					<path style="fill:#474B50;" d="M18.67,4.41c-2.76,1.37-3.18,4.08-3.18,7.19l0.17,3.14c0,0.08,0.28,0.49,0.74,0.64l0-2.61
						c0-1.73,0.52-2.77,1.4-4.09c1.92,0.44,4.37,0.71,7.04,0.71c2.67,0,5.13-0.27,7.04-0.71c0.88,1.32,1.4,2.35,1.4,4.09l0,2.67
						c0.29-0.04,0.63-0.58,0.63-0.67l0-3.17c0-3.1-0.17-5.79-2.84-7.17c-1.21-0.62-2.62-1.21-3.23-3.54L18.67,4.41z"/>
					<g>
						<path style="fill:#C2DCED;" d="M16.74,15.38l0,4.22c0,0-0.47,0.99-1.11,0c-0.65-0.99-0.33-1.01-1.04-1.89
							C14.02,17.02,14.87,12.26,16.74,15.38z"/>
						<path style="fill:#C2DCED;" d="M32.68,15.38l0,4.22c0,0,0.47,0.99,1.11,0c0.65-0.99,0.33-1.01,1.04-1.89
							C35.4,17.02,34.55,12.26,32.68,15.38z"/>
					</g>
				</g>
			</g>
			<g style="opacity:0.2;">
				<path style="fill:#30302F;" d="M32.52,34.99c-1.01-1.31-1.53-2.86-1.77-4.38l2.04-1.73c0.57-0.41,0.91-1.1,0.91-1.82l0-7.33
					c0.03-0.04,0.06-0.07,0.08-0.11c0.65-0.99,0.33-1.01,1.04-1.89c0.42-0.51,0.06-3.24-0.9-3.38l0-2.74c0-3.1-0.17-5.79-2.84-7.17
					c-1.21-0.62-2.62-1.21-3.23-3.54l-3.58,1.37l0,49.56l24.29,0l-2.86-11.66c-0.52-2.12-2.22-3.73-4.36-4.16
					C38.38,35.4,35.25,35.11,32.52,34.99z"/>
			</g>
		</g>
	</g>
</g>
</svg>
