<?xml version="1.0" encoding="utf-8"?>
<!-- Generator: Adobe Illustrator 23.0.1, SVG Export Plug-In . SVG Version: 6.00 Build 0)  -->
<svg version="1.1" id="Layer_1" xmlns="http://www.w3.org/2000/svg" xmlns:xlink="http://www.w3.org/1999/xlink" x="0px" y="0px"
	 width="20.3px" height="28px" viewBox="0 0 20.3 28" style="enable-background:new 0 0 20.3 28;" xml:space="preserve">
<path style="fill:#5C5C5C;" d="M10.15,0C7.36,0,4.82,1.12,2.98,2.92C1.15,4.71,0,7.21,0,9.96c0,2.64,1.05,4.54,1.09,4.61l0,0
	c0.37,0.67,0.97,1.72,1.37,2.37l0,0l4.17,6.81c0.39,0.63,1.02,1.66,1.4,2.29l0.64,1.05c0.15,0.25,0.35,0.47,0.6,0.64
	C9.53,27.9,9.84,28,10.15,28c0.31,0,0.62-0.1,0.86-0.26c0.25-0.17,0.45-0.39,0.6-0.63l0.65-1.05c0.39-0.63,1.02-1.66,1.41-2.29
	l4.19-6.8c0.42-0.69,0.98-1.75,1.29-2.48c0.01-0.02,0.28-0.65,0.56-1.52c0.14-0.43,0.28-0.93,0.39-1.44
	c0.11-0.51,0.19-1.03,0.19-1.55c0-2.75-1.15-5.25-2.98-7.05C15.48,1.11,12.94,0,10.15,0L10.15,0z M18.36,11.14
	c-0.14,0.64-0.35,1.31-0.53,1.81c-0.09,0.25-0.17,0.46-0.23,0.6c-0.03,0.07-0.05,0.13-0.07,0.17l-0.02,0.04l0,0.01
	c-0.27,0.62-0.83,1.69-1.18,2.26l0,0l-4.19,6.79c-0.39,0.63-1.02,1.66-1.41,2.29l-0.59,0.95L9.55,25.1
	c-0.39-0.63-1.02-1.66-1.4-2.29L3.98,16C3.6,15.39,3,14.34,2.65,13.71l0,0c-0.03-0.05-0.87-1.68-0.87-3.75
	c0-2.25,0.93-4.28,2.45-5.77c1.51-1.48,3.6-2.4,5.91-2.4s4.4,0.92,5.91,2.4c1.51,1.48,2.45,3.52,2.45,5.77
	C18.51,10.29,18.45,10.71,18.36,11.14L18.36,11.14z"/>
<path style="fill:#5C5C5C;" d="M17.88,16.92l-0.02,0.04l0,0L17.88,16.92z"/>
<path style="fill:#5C5C5C;" d="M14.76,9.32L10.9,5.59c-0.39-0.38-0.98-0.4-1.38-0.01L5.65,9.32c-1.05,1.01,0.32,2.8,1.37,1.79v0
	l2.13-2.06v7.24h2.11V9.05l2.13,2.06C14.45,12.12,15.81,10.32,14.76,9.32z"/>
</svg>
