<?xml version="1.0" encoding="utf-8"?>
<!-- Generator: Adobe Illustrator 17.0.0, SVG Export Plug-In . SVG Version: 6.00 Build 0)  -->
<!DOCTYPE svg PUBLIC "-//W3C//DTD SVG 1.1//EN" "http://www.w3.org/Graphics/SVG/1.1/DTD/svg11.dtd">
<svg version="1.1" id="Layer_1" xmlns="http://www.w3.org/2000/svg" xmlns:xlink="http://www.w3.org/1999/xlink" x="0px" y="0px"
	 width="32px" height="32px" viewBox="0 0 32 32" enable-background="new 0 0 32 32" xml:space="preserve">
<path fill="#211C57" d="M28.037,19.62c-1.276,0-2.312,1.035-2.312,2.312c0,1.276,1.035,2.312,2.312,2.312
	c1.277,0,2.312-1.035,2.312-2.312C30.349,20.655,29.314,19.62,28.037,19.62z M28.037,22.922c-0.546,0-0.991-0.445-0.991-0.991
	c0-0.546,0.444-0.991,0.991-0.991c0.546,0,0.991,0.444,0.991,0.991C29.028,22.477,28.584,22.922,28.037,22.922z M31.009,18.96
	v-0.165c0-0.054,0.053-0.118,0.131-0.174l-0.201-1.007c-0.143-0.715-0.828-1.458-1.529-1.658l-3.353-0.958l-1.041-2.117
	c-0.321-0.654-1.174-1.185-1.903-1.185h-2.318c-0.365,0-0.66,0.296-0.66,0.66v6.274c0,0-0.148,0.33-0.33,0.33h-0.351V9.738
	c0-1.094-0.887-1.981-1.981-1.981H0.959c-0.365,0-0.66,0.296-0.66,0.66V18.96c0,0.365,0.296,0.66,0.66,0.66h5.284
	c0,0,0,0.074,0,0.165s-0.144,0.201-0.32,0.245l-0.186,0.047l0.302,0.897c0.113,0.347,0.499,0.628,0.864,0.628h0.165l0.132,1.323
	c0.018,0.182,0.107,0.329,0.198,0.329c0.091,0,0.165,0,0.165,0v-1.651c0.148-1.515,1.423-2.707,2.972-2.707s2.824,1.192,2.958,2.707
	h2.887c0,0.729,0.591,1.321,1.321,1.321h2.41c0.729,0,1.321-0.591,1.321-1.321v-1.321h0.165c0.091,0,0.189,0.146,0.219,0.326
	l0.166,0.995h2.421l0.265,0.997c0.036,0.179,0.139,0.324,0.23,0.324h0.132v-1.321h0.004c-0.001-0.022-0.004-0.044-0.004-0.066
	c0-1.639,1.366-2.972,3.005-2.972c1.639,0,3.005,1.333,3.005,2.972c0,0.022-0.003,0.044-0.004,0.066h0.301
	c0.365,0,0.66-0.296,0.66-0.66V18.96C32,18.96,31.009,18.96,31.009,18.96z M18.104,19.95l-3.606,0.33c-0.183,0-0.33-0.148-0.33-0.33
	v-0.388h3.606c0.183,0,0.33,0.148,0.33,0.33V19.95z M24.735,15.878l-2.608-0.298c-0.211-0.024-0.418-0.23-0.442-0.441l-0.21-2.124
	h1.968c0.217,0,0.596,0.232,0.708,0.429l0.585,1.834V15.878z M28.401,16.648c0,0.018-0.015,0.033-0.033,0.033h-1.981
	c-0.2,0-0.363-0.163-0.363-0.363v-0.33c0-0.01,0.004-0.019,0.011-0.025c0.006-0.005,0.014-0.008,0.021-0.008
	c0.002,0,1.989,0.284,1.989,0.284c0.199,0.028,0.355,0.136,0.355,0.244L28.401,16.648L28.401,16.648z M10.536,19.62
	c-1.276,0-2.312,1.035-2.312,2.312c0,1.276,1.035,2.312,2.312,2.312c1.277,0,2.312-1.035,2.312-2.312
	C12.847,20.655,11.813,19.62,10.536,19.62z M10.536,22.922c-0.546,0-0.991-0.445-0.991-0.991c0-0.546,0.444-0.991,0.991-0.991
	c0.546,0,0.991,0.444,0.991,0.991C11.526,22.477,11.082,22.922,10.536,22.922z"/>
</svg>
