<?xml version="1.0" encoding="utf-8"?>
<!-- Generator: Adobe Illustrator 23.0.1, SVG Export Plug-In . SVG Version: 6.00 Build 0)  -->
<svg version="1.1" id="Capa_1" xmlns="http://www.w3.org/2000/svg" xmlns:xlink="http://www.w3.org/1999/xlink" x="0px" y="0px"
	 width="24.6px" height="20px" viewBox="0 0 24.6 28" style="enable-background:new 0 0 24.6 28;" xml:space="preserve">
<style type="text/css">
	.st0{fill:#5C5C5C;}
</style>
<g>
	<circle class="st0" cx="8.5" cy="5.5" r="5.5"/>
	<circle class="st0" cx="19.5" cy="7.5" r="3.4"/>
	<path class="st0" d="M10,13.1c-2.7-0.2-5.1,0-7.2,1.7c-3.4,2.8-2.8,6.5-2.8,11C0.1,27,1,28,2.2,28c13.2,0,13.8,0.4,14.5-1.3
		c0.3-0.6,0.2-0.4,0.2-6C17,16.2,13.1,13.1,10,13.1L10,13.1z"/>
	<path class="st0" d="M20.3,13c-1.6,0-2.8-0.1-4.2,1c3.3,3.3,2.7,6.6,2.7,11.8c0,0.3-0.4,0.2,3.8,0.2c1.1,0,1.9-0.9,1.9-1.9v-6.8
		C24.6,14.9,22.6,13,20.3,13z"/>
</g>
</svg>
