<?xml version="1.0" encoding="utf-8"?>
<!-- Generator: Adobe Illustrator 23.0.1, SVG Export Plug-In . SVG Version: 6.00 Build 0)  -->
<svg version="1.1" id="Layer_1" xmlns="http://www.w3.org/2000/svg" xmlns:xlink="http://www.w3.org/1999/xlink" x="0px" y="0px"
	 width="19.6px" height="28px" viewBox="0 0 27.91 28" style="enable-background:new 0 0 27.91 28;" xml:space="preserve">
<g id="Filledoutline_1_">
	<path style="fill:#5C5C5C;" d="M7.9,22.91h1.27v2.55H7.9V22.91z"/>
	<path style="fill:#5C5C5C;" d="M11.45,22.91h1.27v2.55h-1.27V22.91z"/>
	<path style="fill:#5C5C5C;" d="M27.91,14.63c0-0.35-0.28-0.64-0.64-0.64h-1.91V8.27c0-0.35-0.28-0.64-0.64-0.64H14.54
		c-0.35,0-0.64,0.28-0.64,0.64V14h-7c-0.35,0-0.64,0.28-0.64,0.64v5.73H4.99c-0.35,0-0.64,0.28-0.64,0.64v6.37
		c0,0.35,0.28,0.64,0.64,0.64h20.37c0.35,0,0.64-0.28,0.64-0.64v-5.73h1.27c0.35,0,0.64-0.28,0.64-0.64V14.63z M15.18,8.9h8.91V14
		h-8.91V8.9z M7.54,15.27h8.91v5.09H7.54V15.27z M5.63,21.63h8.91v5.09H5.63V21.63z M24.72,26.73h-8.91v-5.09h8.91V26.73z
		 M26.63,20.36h-8.91v-5.09h8.91V20.36z"/>
	<path style="fill:#5C5C5C;" d="M19.99,16.54h1.27v2.55h-1.27V16.54z"/>
	<path style="fill:#5C5C5C;" d="M23.54,16.54h1.27v2.55h-1.27V16.54z"/>
	<path style="fill:#5C5C5C;" d="M9.81,16.54h1.27v2.55H9.81V16.54z"/>
	<path style="fill:#5C5C5C;" d="M13.36,16.54h1.27v2.55h-1.27V16.54z"/>
	<path style="fill:#5C5C5C;" d="M17.45,10.18h1.27v2.55h-1.27V10.18z"/>
	<path style="fill:#5C5C5C;" d="M20.99,10.18h1.27v2.55h-1.27V10.18z"/>
	<path style="fill:#5C5C5C;" d="M18.09,22.91h1.27v2.55h-1.27V22.91z"/>
	<path style="fill:#5C5C5C;" d="M21.63,22.91h1.27v2.55h-1.27V22.91z"/>
	<path style="fill:#5C5C5C;" d="M14.44,9.24c0.2-0.37,0.52-0.66,0.88-0.86c-0.85-1.64-2.57-2.76-4.55-2.76
		c-2.82,0-5.12,2.29-5.12,5.1c0,1.81,0.95,3.4,2.38,4.3c0.01-0.01,0.01-0.01,0.02-0.02c0.3-0.29,0.64-0.5,1.05-0.61
		c0.14-0.02,0.29-0.04,0.43-0.06c-1.51-0.52-2.6-1.94-2.6-3.61c0-2.11,1.72-3.82,3.84-3.82c1.65,0,3.05,1.04,3.6,2.49
		C14.39,9.33,14.41,9.29,14.44,9.24z"/>
	<path style="fill:#5C5C5C;" d="M20.01,4.78c-0.1-0.15-0.26-0.25-0.44-0.28c-0.18-0.03-0.36,0.02-0.5,0.13
		c-0.62,0.5-1.51,0.45-2.08-0.11c-0.56-0.56-0.61-1.45-0.11-2.07c0.11-0.14,0.16-0.32,0.13-0.5c-0.03-0.18-0.13-0.34-0.28-0.43
		c-1.12-0.72-2.35-1.23-3.65-1.5c-0.18-0.04-0.36,0-0.51,0.11c-0.15,0.11-0.24,0.27-0.26,0.45c-0.08,0.79-0.75,1.39-1.55,1.39
		c-0.8,0-1.47-0.6-1.55-1.39C9.2,0.39,9.11,0.23,8.96,0.12C8.81,0.01,8.63-0.02,8.45,0.01c-1.3,0.28-2.52,0.78-3.65,1.5
		c-0.15,0.1-0.26,0.26-0.28,0.43c-0.03,0.18,0.02,0.36,0.13,0.5c0.5,0.62,0.45,1.51-0.11,2.07C3.98,5.08,3.08,5.13,2.47,4.63
		C2.32,4.52,2.14,4.47,1.96,4.5C1.78,4.53,1.62,4.63,1.53,4.78C0.8,5.9,0.29,7.12,0.01,8.41c-0.04,0.18,0,0.36,0.11,0.51
		c0.11,0.15,0.27,0.24,0.45,0.26c0.79,0.08,1.39,0.75,1.39,1.54c0,0.8-0.6,1.46-1.39,1.54c-0.18,0.02-0.34,0.11-0.45,0.26
		c-0.11,0.15-0.15,0.33-0.11,0.51c0.28,1.29,0.79,2.51,1.51,3.63c0.1,0.15,0.26,0.25,0.44,0.28c0.18,0.03,0.36-0.02,0.5-0.13
		c0.62-0.5,1.51-0.45,2.08,0.11c0.56,0.56,1.17,1.37,0.67,1.99c-0.11,0.14-0.16,0.4-0.13,0.58c0.03,0.18,0.38,0.5,0.55,0.55
		c0.95,0.32,0.68,0.21,1.47,0.49c-0.01-0.25,0,0,0.05-0.24c0.04-0.18,0.11-0.35,0.2-0.51c-0.46-0.17-0.26-0.37-0.69-0.61
		c0.13-0.83-0.37-2.3-1.22-3.15c-0.85-0.85-2.12-1.05-3.17-0.58c-0.37-0.66-0.66-1.35-0.87-2.07c1.08-0.41,1.83-1.44,1.83-2.64
		S2.5,8.48,1.42,8.08C1.62,7.36,1.91,6.66,2.28,6C3.33,6.48,4.6,6.27,5.45,5.42C6.3,4.57,6.51,3.32,6.03,2.27
		C6.69,1.9,7.39,1.61,8.12,1.41c0.41,1.08,1.45,1.82,2.65,1.82c1.21,0,2.25-0.75,2.65-1.82c0.73,0.2,1.42,0.49,2.08,0.86
		c-0.47,1.05-0.27,2.3,0.58,3.15c0.85,0.85,2.12,1.05,3.17,0.58c0.36,0.64,0.64,1.32,0.85,2.02c0.05-0.01,0.11-0.01,0.16-0.02
		c0.42-0.04,0.81,0.05,1.2,0.15C21.18,6.96,20.69,5.82,20.01,4.78z"/>
</g>
</svg>
